HIERARCHY
ROOT Hips
{
	OFFSET 0.00000 0.00000 0.00000
	CHANNELS 6 Xposition Yposition Zposition Zrotation Yrotation Xrotation 
	JOINT LHipJoint
	{
		OFFSET 0 0 0
		CHANNELS 3 Zrotation Yrotation Xrotation
		JOINT LeftHip
		{
			OFFSET 1.86795 -1.59681 0.65681
			CHANNELS 3 Zrotation Yrotation Xrotation
			JOINT LeftKnee
			{
				OFFSET 2.30491 -6.33268 0.00000
				CHANNELS 3 Zrotation Yrotation Xrotation
				JOINT LeftAnkle
				{
					OFFSET 2.46780 -6.78022 0.00000
					CHANNELS 3 Zrotation Yrotation Xrotation
					JOINT LeftToe
					{
						OFFSET 0.07897 -0.21698 1.59652
						CHANNELS 3 Zrotation Yrotation Xrotation
						End Site
						{
							OFFSET 0.00000 -0.00000 0.82310
						}
					}
				}
			}
		}
	}
	JOINT RHipJoint
	{
		OFFSET 0 0 0
		CHANNELS 3 Zrotation Yrotation Xrotation
		JOINT RightHip
		{
			OFFSET -1.93650 -1.59681 0.65681
			CHANNELS 3 Zrotation Yrotation Xrotation
			JOINT RightKnee
			{
				OFFSET -2.29410 -6.30299 0.00000
				CHANNELS 3 Zrotation Yrotation Xrotation
				JOINT RightAnkle
				{
					OFFSET -2.48738 -6.83403 0.00000
					CHANNELS 3 Zrotation Yrotation Xrotation
					JOINT RightToe
					{
						OFFSET -0.08699 -0.23899 1.89395
						CHANNELS 3 Zrotation Yrotation Xrotation
						End Site
						{
							OFFSET -0.00000 -0.00000 0.96904
						}
					}
				}
			}
		}
	}
	JOINT lowerback
	{
		OFFSET 0 0 0
		CHANNELS 3 Zrotation Yrotation Xrotation
		JOINT Chest
		{
			OFFSET 0.03629 1.99740 -0.07548
			CHANNELS 3 Zrotation Yrotation Xrotation
			JOINT Chest2
			{
				OFFSET 0.03970 1.94298 0.17218
				CHANNELS 3 Zrotation Yrotation Xrotation
				JOINT lowerneck
				{
					OFFSET 0 0 0
					CHANNELS 3 Zrotation Yrotation Xrotation
					JOINT Neck
					{
						OFFSET -0.05054 1.79469 0.04241
						CHANNELS 3 Zrotation Yrotation Xrotation
						JOINT Head
						{
							OFFSET 0.05195 1.78475 -0.22133
							CHANNELS 3 Zrotation Yrotation Xrotation
							End Site
							{
								OFFSET 0.02420 1.80711 -0.07950
							}
						}
					}
				}
				JOINT LeftCollar
				{
					OFFSET 0 0 0
					CHANNELS 3 Zrotation Yrotation Xrotation
					JOINT LeftShoulder
					{
						OFFSET 2.92134 1.19850 0.36056
CHANNELS 3 Zrotation Xrotation Yrotation
						JOINT LeftElbow
						{
OFFSET 0 -4.841370 0.000000
CHANNELS 3 Zrotation Xrotation Yrotation
							JOINT LeftWrist
							{
OFFSET 0 -3.245200 -0.000000
CHANNELS 3 Zrotation Xrotation Yrotation
								JOINT lhand
								{
									OFFSET 0 0 0
CHANNELS 3 Zrotation Xrotation Yrotation
									JOINT LFingers
									{
OFFSET 0 -0.521220 0.000000
CHANNELS 3 Zrotation Xrotation Yrotation
										End Site
										{
OFFSET 0 -0.420220 0.000000
										}
									}
								}
								JOINT LThumb
								{
OFFSET 0 0.000000 0.000000
CHANNELS 3 Zrotation Xrotation Yrotation
									End Site
									{
OFFSET 0 -0.426640 0.426640
									}
								}
							}
						}
					}
				}
				JOINT RightCollar
				{
					OFFSET 0 0 0
					CHANNELS 3 Zrotation Yrotation Xrotation
					JOINT RightShoulder
					{
						OFFSET -2.84327 1.20795 0.50191
CHANNELS 3 Zrotation Xrotation Yrotation
						JOINT RightElbow
						{
OFFSET 0 -4.722840 0.000000
CHANNELS 3 Zrotation Xrotation Yrotation
							JOINT RightWrist
							{
OFFSET 0 -3.234590 0.000000
CHANNELS 3 Zrotation Xrotation Yrotation
								JOINT rhand
								{
									OFFSET 0 0 0
CHANNELS 3 Zrotation Xrotation Yrotation
									JOINT RFingers
									{
OFFSET 0 -0.307420 0.000000
CHANNELS 3 Zrotation Xrotation Yrotation
										End Site
										{
OFFSET 0 -0.247850 0.000000
										}
									}
								}
								JOINT RThumb
								{
OFFSET 0 0.000000 0.000000
CHANNELS 3 Zrotation Xrotation Yrotation
									End Site
									{
OFFSET 0 -0.251630 0.251630
									}
								}
							}
						}
					}
				}
			}
		}
	}
}
MOTION
Frames: 10
Frame Time: 0.008333333333333333
23.210200 16.039200 -27.271700 -1.245100 -22.792400 5.775500 0.000000 0.000000 0.000000 -27.398800 -13.788500 -6.237800 1.586600 7.945900 22.549900 0.680600 5.702100 -18.689200 0.032000 1.154000 3.172700 0.000000 0.000000 0.000000 16.416300 16.725800 -20.400700 -3.478200 -11.431700 33.749900 3.861400 -33.209800 -22.422900 -1.384800 -7.445800 21.043100 2.040900 -0.520200 2.513700 1.750100 -0.564200 -1.872600 0.687000 -0.309300 -3.338100 -5.446000 1.251700 0.276200 5.852200 0.776200 21.881600 2.845400 0.311400 6.521400 -0.000000 -0.000000 0.000000 1.997800 16.134700 -12.606100 20.936600 -31.754200 6.016500 0.371100 25.470800 -39.537000 0.000000 0.000000 0.000000 -7.125000 0.000000 0.000000 -43.917000 64.155500 22.417000 -0.000000 -0.000000 0.000000 -16.027300 16.695400 27.206300 -18.461400 -28.743900 -4.769000 -20.592900 -14.298200 -25.872600 0.000000 0.000000 0.000000 7.125000 0.000000 -0.000000 5.538700 2.702800 5.296500
23.216607 16.052732 -27.252363 -0.907996 -22.948798 5.486971 0.000000 0.000000 0.000000 -27.955914 -13.965965 -5.052652 1.394087 7.469750 21.114851 0.480802 7.021814 -17.517708 0.006934 0.518693 1.425344 0.000000 0.000000 0.000000 16.028008 16.893390 -20.065727 -3.462657 -11.408744 33.671085 4.135351 -33.785030 -20.854948 -0.978324 -6.291329 17.633753 1.515357 -0.613168 2.401867 1.780598 -0.708914 -1.996253 1.020411 -0.369232 -3.395840 -6.361716 1.518124 1.157763 6.699250 1.008430 21.325750 3.267172 0.402229 6.158272 0.000000 0.000000 0.000000 1.725889 16.480320 -13.069240 21.786489 -32.734873 6.470045 0.156659 24.661349 -39.358690 0.000000 0.000000 0.000000 -7.125000 0.000000 0.000000 -43.867095 63.967872 22.199209 0.000000 0.000000 0.000000 -16.401829 16.521424 27.775065 -18.707283 -29.053329 -4.887933 -19.556916 -13.790501 -25.483201 0.000000 0.000000 0.000000 7.125000 0.000000 0.000000 6.127347 3.282166 5.800184
23.227521 16.042316 -27.248251 -1.240509 -23.180040 5.515077 0.000000 0.000000 0.000000 -27.705689 -13.994591 -5.345448 1.496605 7.727710 21.890065 0.526482 7.063583 -18.077329 0.015606 0.802131 2.204521 0.000000 0.000000 0.000000 16.428204 16.672739 -20.077084 -3.428339 -11.358193 33.497537 4.061364 -33.549885 -20.816650 -1.177620 -6.883393 19.371952 1.758132 -0.352735 2.225439 1.790342 -0.357426 -1.976499 0.874031 -0.199409 -3.279572 -5.862837 1.151503 0.197931 6.241798 0.559882 22.624750 3.048243 0.197622 6.781855 0.000000 0.000000 0.000000 2.187810 16.065188 -14.844172 22.435440 -33.465632 6.824418 2.748246 25.445272 -39.587663 0.000000 0.000000 0.000000 -7.125000 0.000000 0.000000 -41.700855 64.856247 21.751889 0.000000 0.000000 0.000000 -16.242967 16.364544 27.547833 -18.595325 -28.912744 -4.833654 -20.006290 -13.728772 -25.522642 0.000000 0.000000 0.000000 7.125000 0.000000 0.000000 5.858291 3.165356 5.555472
23.239040 16.035777 -27.247600 -0.793402 -23.574174 5.259834 0.000000 0.000000 0.000000 -28.220256 -13.558696 -5.165707 1.430917 7.563694 21.396531 0.492249 7.160160 -17.771679 0.004211 0.415828 1.142593 0.000000 0.000000 0.000000 16.052835 16.857592 -20.713382 -3.632912 -11.655190 34.522769 3.135686 -31.562099 -25.143624 -2.425539 -9.701240 28.014722 1.422056 -0.308307 2.256118 1.635058 -0.314693 -1.930754 0.900122 -0.171715 -3.248156 -5.827364 1.116444 -0.230950 6.101577 0.546657 22.946813 3.005889 0.186941 6.964662 0.000000 0.000000 0.000000 2.475945 15.921726 -15.569832 23.024783 -34.115852 7.152189 0.097108 22.853410 -40.505461 0.000000 0.000000 0.000000 -7.125000 0.000000 0.000000 -45.605223 64.765989 24.081037 0.000000 0.000000 0.000000 -16.518862 15.923092 27.833401 -18.559561 -28.867738 -4.816357 -19.738885 -13.550997 -25.879030 0.000000 0.000000 0.000000 7.125000 0.000000 0.000000 6.055711 2.844843 5.780614
23.253524 16.011969 -27.260693 -1.259021 -23.762360 5.167195 0.000000 0.000000 0.000000 -27.729487 -12.892521 -6.008612 1.623675 8.033749 22.816662 0.548750 6.698256 -18.022370 0.003243 -0.329434 -0.905312 0.000000 0.000000 0.000000 16.804321 16.694788 -20.950614 -3.710160 -11.764311 34.903222 3.237929 -31.997392 -25.503100 -2.570598 -9.957176 28.845118 2.135279 -0.333238 2.593181 1.646683 -0.314835 -1.721290 0.513689 -0.187004 -3.226995 -5.931699 1.143867 -0.335808 6.398870 0.533764 23.008813 3.123056 0.195688 6.999584 0.000000 0.000000 0.000000 2.999505 15.907839 -16.813709 23.755778 -34.904845 7.566415 -0.356803 21.201455 -39.931570 0.000000 0.000000 0.000000 -7.125000 0.000000 0.000000 -45.177651 64.234075 23.270804 0.000000 0.000000 0.000000 -16.554596 15.594370 27.821864 -18.770016 -29.131870 -4.918405 -19.814250 -13.537564 -24.680739 0.000000 0.000000 0.000000 7.125000 0.000000 0.000000 5.894122 4.064334 5.491169
23.261943 15.987085 -27.288200 -0.718121 -24.630205 5.144034 0.000000 0.000000 0.000000 -28.269632 -12.588989 -6.212706 1.586877 7.946641 22.552046 0.588976 7.125338 -18.816309 0.000181 -0.081691 -0.224399 0.000000 0.000000 0.000000 16.449120 16.135598 -23.538979 -4.178191 -12.393873 37.139914 3.094211 -31.592383 -25.703137 -3.568469 -11.562348 34.201245 1.578772 -0.349801 2.805300 1.553055 -0.362743 -1.376851 0.730637 -0.197502 -2.987933 -5.225328 1.250674 -2.225578 5.599313 0.847966 24.020532 2.796836 0.359352 7.663466 0.000000 0.000000 0.000000 3.173856 15.719826 -18.402548 24.248557 -35.425972 7.850136 -0.594819 19.658286 -41.256092 0.000000 0.000000 0.000000 -7.125000 0.000000 0.000000 -47.418160 65.085583 25.578885 0.000000 0.000000 0.000000 -17.077302 14.589717 28.930590 -18.751852 -29.109197 -4.909528 -19.567703 -13.208389 -25.371945 0.000000 0.000000 0.000000 7.125000 0.000000 0.000000 6.110039 3.394598 5.770928
23.281966 15.961899 -27.346474 -1.748906 -25.859139 6.183405 0.000000 0.000000 0.000000 -27.084536 -12.263171 -8.281636 1.830226 8.503205 24.253170 0.594917 7.677338 -19.343911 0.022443 -0.895276 -2.461130 0.000000 0.000000 0.000000 18.607960 13.595960 -28.031895 -4.620564 -12.943160 39.156325 4.430073 -34.684996 -20.964923 -3.717131 -11.768581 34.925450 2.614282 -0.213840 3.465005 1.691100 -0.110845 -1.356185 0.282198 -0.094481 -3.342152 -5.393933 1.491988 -2.075452 5.818659 1.166706 23.403711 2.903770 0.517763 7.407711 0.000000 0.000000 0.000000 4.000831 16.260663 -21.186550 25.244912 -36.453010 8.435110 -2.668864 15.791019 -42.165945 0.000000 0.000000 0.000000 -7.125000 0.000000 0.000000 -50.778208 65.088062 27.819055 0.000000 0.000000 0.000000 -17.187110 14.041060 29.729893 -19.078633 -29.516277 -5.069524 -19.369318 -13.335717 -25.126596 0.000000 0.000000 0.000000 7.125000 0.000000 0.000000 6.207856 3.679427 5.831349
23.281500 15.930706 -27.353127 -1.070274 -28.231415 5.631920 0.000000 0.000000 0.000000 -28.305765 -13.537489 -7.067723 1.776746 8.384585 23.888581 0.438289 10.844558 -20.748680 0.000560 0.145826 0.400574 0.000000 0.000000 0.000000 20.185484 10.231458 -31.945219 -5.019923 -13.406123 40.908492 5.012841 -36.156315 -19.091673 -3.676010 -11.715655 34.734218 1.749563 -0.024877 4.205738 1.528242 0.091997 -0.284803 0.583713 0.030022 -2.651069 -4.929351 1.550747 -3.356753 4.671205 1.534980 22.659946 2.470298 0.658228 7.392765 0.000000 0.000000 0.000000 4.958640 16.762795 -26.297307 26.484428 -37.682927 9.182268 -1.710171 13.555566 -42.857499 0.000000 0.000000 0.000000 -7.125000 0.000000 0.000000 -51.066632 65.813516 28.823227 0.000000 0.000000 0.000000 -17.151300 12.241135 29.618322 -19.351331 -29.852864 -5.204519 -20.813772 -14.664112 -24.887085 0.000000 0.000000 0.000000 7.125000 0.000000 0.000000 5.302545 3.682050 4.972779
23.240329 15.892690 -27.329964 -0.587269 -30.486038 5.249353 0.000000 0.000000 0.000000 -28.867032 -12.604067 -6.956822 1.768964 8.367308 23.835476 0.392071 11.994464 -21.530924 0.000330 -0.054411 -0.149524 0.000000 0.000000 0.000000 21.596203 10.101366 -33.787612 -4.939586 -13.315460 40.561195 3.671252 -31.616103 -14.603881 -2.618689 -10.047789 29.134064 1.214012 0.015291 5.313347 1.239953 0.119117 0.476244 0.585036 0.050049 -2.489018 -4.489862 1.945672 -3.907688 4.054557 2.201478 21.935158 2.232191 0.971774 7.235537 0.000000 0.000000 0.000000 5.585218 17.515952 -29.224826 27.279433 -38.444341 9.672341 -2.380116 14.636998 -41.793540 0.000000 0.000000 0.000000 -7.125000 0.000000 0.000000 -49.914804 64.929441 27.060817 0.000000 0.000000 0.000000 -16.781130 11.393209 30.663598 -19.671661 -30.244753 -5.364966 -20.241511 -14.602118 -25.360253 0.000000 0.000000 0.000000 7.125000 0.000000 0.000000 5.699126 3.292158 5.389536
23.179128 15.854537 -27.296499 -0.166911 -31.206536 5.596489 0.000000 0.000000 0.000000 -28.917977 -11.619242 -8.490793 1.951695 8.764785 25.062135 0.482530 11.411703 -21.782681 0.010215 -0.649549 -1.784925 0.000000 0.000000 0.000000 21.756148 12.284000 -34.249589 -4.113786 -12.309955 36.837916 2.899655 -28.648332 -8.027481 -0.202212 -2.895613 7.988299 1.207496 -0.187284 6.307388 0.871347 -0.151663 1.002833 0.231768 -0.086194 -2.503094 -4.293867 2.181171 -4.792159 4.018502 2.564788 21.461284 2.217262 1.171098 7.224938 0.000000 0.000000 0.000000 5.334930 16.519648 -29.145371 26.174196 -37.380042 8.993275 -2.205597 16.805979 -41.806509 0.000000 0.000000 0.000000 -7.125000 0.000000 0.000000 -49.775353 64.988373 27.032264 0.000000 0.000000 0.000000 -16.086985 11.163499 31.611965 -19.818911 -30.423516 -5.439320 -19.745847 -14.276210 -25.774741 0.000000 0.000000 0.000000 7.125000 0.000000 0.000000 6.041227 2.950725 5.754669
